<?xml version="1.0" standalone="no"?>
<!DOCTYPE svg PUBLIC "-//W3C//DTD SVG 20010904//EN"
 "http://www.w3.org/TR/2001/REC-SVG-20010904/DTD/svg10.dtd">
<svg version="1.0" xmlns="http://www.w3.org/2000/svg"
 width="300.000000pt" height="300.000000pt" viewBox="0 0 300.000000 300.000000"
 preserveAspectRatio="xMidYMid meet">
<metadata>
Created by potrace 1.10, written by Peter Selinger 2001-2011
</metadata>
<g transform="translate(0.000000,300.000000) scale(0.100000,-0.100000)"
fill="#000000" stroke="none">
<path d="M597 2685 c3 -35 3 -74 -1 -88 l-6 -25 -99 5 -100 6 1 -1102 0 -1101
73 0 c56 0 74 4 79 15 8 21 33 19 46 -5 6 -10 10 -49 9 -85 l-2 -65 -30 0 -31
0 29 -30 c33 -34 55 -39 55 -12 0 30 12 34 36 11 21 -20 56 -21 53 -2 -4 22 3
23 27 4 34 -27 50 -27 57 0 6 22 6 22 37 -5 38 -31 50 -33 50 -6 0 25 7 25 45
0 39 -26 45 -25 45 5 0 31 3 31 44 0 34 -26 46 -24 46 7 0 24 5 23 44 -7 55
-42 66 -35 65 38 -1 72 -10 109 -27 115 -9 3 -12 -14 -12 -57 0 -60 0 -61 -28
-61 l-28 0 3 127 c2 70 7 131 12 136 18 18 31 -5 31 -58 0 -43 -4 -54 -17 -58
-10 -3 42 -5 115 -6 l132 -1 0 -70 c0 -69 0 -70 -27 -70 l-27 0 29 -30 c16
-16 34 -30 41 -30 13 0 24 67 24 146 0 52 1 54 28 54 l27 0 -3 -70 c-3 -66 -5
-70 -28 -70 -34 0 -30 -15 12 -39 45 -27 48 -26 40 4 -8 31 -4 31 42 0 20 -14
42 -25 49 -25 15 0 17 16 3 25 -6 4 -8 11 -5 16 4 5 22 -2 42 -16 37 -25 59
-24 49 1 -7 19 3 18 42 -6 40 -25 42 -25 42 0 0 25 18 25 50 0 32 -25 40 -25
40 0 0 26 22 26 45 0 27 -29 53 -26 47 5 -5 30 2 31 35 5 14 -11 37 -20 51
-20 24 0 24 1 20 69 -3 40 -12 78 -21 92 -17 23 -17 22 -17 -44 l0 -67 -31 0
-32 0 7 128 c8 129 17 161 39 131 18 -24 9 -107 -11 -112 -10 -3 78 -5 193 -6
l210 -1 -3 -70 c-4 -68 -4 -70 -30 -70 l-26 0 29 -30 c32 -33 57 -39 54 -12
-3 33 1 34 36 7 57 -43 69 -33 66 54 -4 116 -41 151 -41 39 0 -55 -1 -58 -25
-58 -24 0 -25 2 -25 74 0 55 4 77 16 87 14 11 18 11 29 -4 10 -13 28 -17 86
-17 l74 0 -2 863 c0 474 -2 969 -2 1101 l-1 238 -97 -3 -98 -4 -3 78 c-3 69
-5 77 -22 77 -18 0 -20 -7 -20 -75 l0 -75 -140 0 -140 0 0 -49 c0 -54 -19 -82
-40 -57 -8 10 -11 57 -11 145 1 124 0 129 -19 124 -18 -5 -20 -14 -21 -92 -1
-173 -2 -176 -26 -179 -22 -3 -23 0 -24 55 -1 32 0 95 1 140 2 78 1 81 -19 76
-18 -5 -21 -13 -21 -57 0 -111 -13 -216 -26 -216 -23 0 -26 20 -27 150 0 119
-1 127 -18 123 -17 -5 -19 -17 -20 -92 -1 -47 -1 -105 1 -128 1 -32 -2 -45
-15 -49 -30 -12 -36 12 -36 142 1 124 0 130 -20 130 -19 0 -20 -6 -19 -81 3
-190 2 -197 -22 -193 -25 3 -26 6 -27 181 -1 81 -2 87 -22 87 -20 0 -21 -4
-18 -77 2 -43 2 -104 1 -135 -2 -51 -5 -58 -22 -58 -11 0 -20 6 -21 13 -3 49
-5 103 -7 173 -2 74 -4 82 -23 87 -20 5 -21 3 -19 -76 5 -165 2 -197 -19 -197
-16 0 -19 11 -24 83 -4 45 -7 106 -7 135 0 46 -2 52 -21 52 -20 0 -21 -5 -19
-77 5 -161 2 -193 -19 -193 -24 0 -35 31 -26 76 l6 34 -94 0 -94 0 5 -50 c4
-40 1 -51 -12 -56 -31 -12 -37 11 -37 144 1 125 0 130 -19 125 -18 -5 -20 -14
-20 -79 0 -52 4 -74 13 -74 8 0 8 -3 -2 -9 -9 -6 -15 -28 -15 -58 -1 -41 -4
-48 -21 -48 -17 0 -20 8 -23 53 -3 44 -6 52 -23 52 -16 0 -19 -7 -19 -49 0
-53 -17 -80 -38 -59 -8 8 -12 56 -12 144 0 119 -2 132 -17 130 -16 -1 -19 -17
-23 -136 -5 -127 -6 -135 -25 -135 -22 0 -23 5 -24 178 -1 81 -2 87 -22 87
-16 0 -19 -4 -14 -21 4 -12 4 -73 0 -135 -5 -85 -10 -114 -20 -114 -24 0 -27
19 -26 150 0 123 0 128 -19 123 -21 -6 -22 -20 -24 -218 -1 -44 -4 -50 -23
-53 -21 -3 -23 0 -24 55 -1 32 -1 92 1 133 2 71 1 76 -19 76 -20 0 -21 -6 -21
-78 l0 -78 -31 0 -31 0 3 79 c4 75 3 80 -18 84 -21 4 -22 2 -16 -58z m86 -151
c9 -3 17 -13 17 -22 0 -9 3 -27 6 -39 6 -22 4 -23 -49 -23 -70 0 -84 -6 -103
-41 -8 -16 -20 -29 -27 -29 -7 0 -19 -10 -27 -22 -12 -19 -15 -67 -16 -248 -2
-223 -1 -225 23 -257 l24 -33 -24 -26 c-24 -25 -24 -28 -20 -182 5 -181 5
-170 0 -285 -4 -87 -3 -88 26 -113 23 -20 36 -23 63 -18 30 6 34 4 34 -16 0
-20 -3 -21 -41 -15 -33 6 -45 3 -63 -14 -22 -21 -22 -24 -22 -287 l1 -267 28
-21 28 -20 44 24 c44 24 46 24 74 7 28 -16 84 -17 838 -14 773 3 810 4 841 22
32 19 32 19 52 -3 28 -29 75 -29 94 1 12 18 14 55 11 187 -4 155 -6 166 -26
183 -20 16 -32 16 -76 0 -9 -4 -13 6 -13 32 l0 37 38 -7 c29 -5 42 -2 58 13
20 19 21 28 17 148 -2 71 -4 134 -3 139 0 6 1 96 2 200 3 172 1 192 -15 208
-13 13 -30 17 -55 15 -35 -3 -37 -1 -40 30 -3 32 -3 32 35 26 59 -9 72 12 73
116 1 47 1 92 0 100 0 8 1 83 3 165 3 115 1 157 -10 178 -8 15 -12 31 -9 36 3
4 -4 18 -15 29 -17 19 -31 22 -112 23 -181 1 -211 -1 -225 -19 -40 -54 12 -50
-659 -49 l-620 2 -26 30 c-15 17 -27 33 -27 36 0 4 34 5 76 3 43 -2 84 1 93 6
10 5 23 3 35 -5 16 -12 23 -12 45 -1 19 10 30 11 43 3 11 -8 23 -8 39 -1 16 7
32 7 51 0 36 -13 59 0 70 39 9 36 23 45 71 45 34 0 40 -4 52 -33 8 -19 20 -38
27 -44 16 -13 216 -14 240 -2 9 5 19 5 22 0 7 -10 145 -11 152 0 2 5 16 3 30
-3 19 -9 30 -9 44 0 14 8 26 8 49 -1 25 -9 36 -9 51 1 17 10 24 10 43 -3 20
-13 25 -13 44 0 12 8 24 28 28 45 4 16 10 32 14 34 3 2 69 5 146 5 77 0 174 1
216 1 62 1 77 -2 83 -15 7 -19 6 -2073 -1 -2092 -6 -16 -99 -18 -108 -3 -8 13
-52 13 -60 0 -3 -5 -39 -10 -79 -10 l-74 0 0 41 c-1 61 -21 77 -93 76 -52 0
-63 -4 -80 -26 -15 -19 -19 -35 -15 -59 4 -30 3 -33 -17 -30 -16 2 -23 12 -28
40 -9 60 -46 87 -77 56 -9 -9 -18 -8 -37 2 -22 12 -30 12 -47 1 -17 -11 -25
-11 -45 0 -19 10 -28 10 -43 1 -15 -9 -26 -9 -44 0 -20 8 -29 8 -41 -2 -12
-10 -21 -10 -45 0 -24 10 -33 10 -45 0 -12 -10 -21 -10 -44 0 -23 9 -33 9 -49
-1 -17 -11 -25 -11 -45 0 -19 10 -29 10 -46 1 -17 -9 -26 -9 -37 0 -7 7 -23
10 -34 7 -12 -3 -33 1 -47 8 -15 8 -31 11 -37 8 -6 -4 -27 -6 -47 -4 -20 1
-40 -2 -44 -8 -3 -6 -17 -8 -31 -5 -14 4 -31 1 -39 -6 -13 -11 -20 -11 -39 0
-18 9 -29 9 -45 1 -16 -9 -26 -9 -42 0 -16 8 -27 8 -45 -1 -18 -10 -26 -10
-38 -1 -34 28 -76 -14 -76 -75 0 -21 -5 -24 -37 -25 -89 -4 -146 0 -156 10
-14 14 -60 14 -74 0 -6 -6 -28 -9 -49 -7 l-39 3 -2 1038 c-2 738 0 1045 8
1059 10 18 18 20 68 16 31 -3 65 -2 76 3 19 7 55 5 98 -7z m1495 -132 c3 -16
-2 -22 -17 -22 -26 0 -36 17 -20 36 16 19 33 13 37 -14z m102 -3 c0 -20 -24
-26 -35 -9 -8 13 14 42 26 34 5 -3 9 -14 9 -25z m50 0 c0 -23 -28 -26 -37 -3
-6 16 15 37 29 28 4 -3 8 -14 8 -25z m116 -8 c-10 -16 -36 -13 -43 5 -8 22 18
37 36 20 7 -8 10 -19 7 -25z m-1818 12 c5 -17 -26 -29 -40 -15 -6 6 -7 15 -3
22 9 14 37 9 43 -7z m52 -4 c0 -25 -33 -22 -38 4 -2 12 3 17 17 17 15 0 21 -6
21 -21z m58 4 c-5 -26 -38 -29 -38 -4 0 15 6 21 21 21 14 0 19 -5 17 -17z m60
0 c5 -17 -26 -29 -40 -15 -6 6 -7 15 -3 22 9 14 37 9 43 -7z m1432 -4 c0 -25
-33 -22 -38 4 -2 12 3 17 17 17 15 0 21 -6 21 -21z m155 1 c0 -8 -8 -16 -17
-18 -13 -2 -18 3 -18 18 0 15 5 20 18 18 9 -2 17 -10 17 -18z m-60 -52 c16 -7
27 -22 31 -42 3 -17 4 -399 2 -848 -3 -785 -4 -817 -22 -837 l-19 -21 -822 0
c-719 0 -824 2 -835 15 -7 8 -23 15 -35 15 -14 0 -25 7 -28 20 -4 16 0 20 19
20 20 0 24 5 24 29 0 24 -3 28 -20 24 -15 -4 -20 0 -21 13 0 13 -5 8 -15 -14
-12 -28 -19 -33 -42 -30 -22 2 -28 9 -30 36 l-3 32 65 0 66 0 -1 43 c-1 23 -3
34 -6 24 -6 -22 -33 -22 -34 1 -1 11 -4 8 -8 -8 -5 -20 -14 -26 -44 -28 -35
-3 -37 -2 -37 27 l0 31 65 0 65 0 0 30 c0 23 -4 30 -20 30 -11 0 -20 6 -21 13
0 6 -5 0 -11 -15 -8 -23 -16 -28 -44 -28 -34 0 -35 1 -32 33 l3 32 63 -1 c58
-1 62 0 62 22 0 18 -5 22 -22 20 -13 -2 -31 -7 -40 -10 -9 -4 -27 -6 -40 -4
-18 2 -24 10 -26 36 -3 31 -2 32 32 32 20 0 36 -4 36 -10 0 -5 14 -10 30 -10
25 0 30 4 30 25 0 24 -2 25 -66 25 l-65 0 3 33 c3 28 7 32 34 35 28 3 32 0 39
-30 4 -18 9 -27 12 -20 2 6 13 12 24 12 17 0 19 8 19 75 0 65 -2 74 -16 68
-11 -4 -22 1 -30 12 -13 18 -14 18 -14 -3 0 -18 -6 -22 -30 -22 -26 0 -30 4
-30 28 0 27 0 27 60 24 54 -3 60 -2 60 15 0 17 -6 19 -59 16 -60 -3 -76 3 -66
29 4 9 22 12 65 10 l60 -4 0 57 0 57 -59 -7 c-47 -5 -59 -4 -64 8 -8 20 1 27
35 27 16 0 28 -5 28 -12 0 -9 3 -9 9 1 5 8 18 12 30 8 17 -4 21 -1 21 19 0 17
-6 24 -20 24 -11 0 -20 6 -21 13 0 6 -4 2 -9 -10 -14 -34 -66 -32 -72 2 -3 14
-1 28 4 31 14 9 102 -6 110 -19 4 -7 8 3 8 21 l0 33 -62 -3 c-57 -3 -63 -1
-63 17 0 17 7 20 53 21 38 0 55 -4 62 -15 7 -12 9 -8 10 17 l0 33 -62 -3 c-59
-3 -63 -1 -66 20 -3 21 0 22 62 22 59 0 66 2 66 20 0 15 -7 20 -24 20 -14 0
-28 -4 -31 -10 -3 -5 -19 -10 -36 -10 -24 0 -29 4 -29 25 0 24 3 25 60 25 l60
0 0 36 0 36 -60 -4 c-46 -2 -59 0 -55 10 2 7 0 21 -7 31 -22 36 -4 51 62 51
53 0 60 2 60 20 0 22 -38 28 -57 9 -6 -6 -23 -9 -39 -7 -21 2 -30 9 -32 26 -4
24 6 26 91 22 36 -1 37 0 36 32 0 18 -3 27 -6 21 -8 -21 -33 -15 -33 8 0 16 5
20 20 16 17 -4 20 0 20 31 -1 30 -3 34 -11 20 -5 -10 -14 -18 -19 -18 -6 0
-10 8 -11 18 0 13 -3 11 -10 -6 -7 -19 -15 -23 -41 -20 -28 2 -33 7 -33 28 0
24 2 25 63 25 58 0 62 1 62 22 0 18 -6 23 -28 23 -15 0 -33 -5 -39 -11 -6 -6
-21 -9 -34 -7 -19 2 -24 9 -24 33 l0 30 63 -3 62 -3 -1 38 c-1 21 -3 30 -6 21
-5 -22 -33 -24 -33 -3 0 8 -4 15 -10 15 -5 0 -10 -9 -10 -21 0 -17 -5 -20 -32
-17 -29 3 -33 6 -33 33 0 27 4 30 33 33 18 2 32 -1 32 -7 0 -16 53 -13 86 4
25 13 138 15 831 15 576 0 810 -4 828 -12z m143 -27 c5 -31 -11 -45 -42 -37
-19 5 -26 13 -26 30 0 30 9 38 40 34 18 -2 26 -10 28 -27z m2 -92 c0 -28 -2
-30 -32 -27 -28 2 -34 8 -36 31 -3 25 -1 27 32 27 33 0 36 -2 36 -31z m-2 -81
c3 -26 1 -28 -32 -28 -33 0 -36 2 -36 31 0 28 2 30 33 27 27 -2 33 -8 35 -30z
m-1880 -80 c-2 -19 -10 -24 -40 -26 -32 -3 -38 0 -38 16 0 26 8 32 47 32 30 0
34 -3 31 -22z m1880 0 c-2 -18 -10 -23 -33 -23 -23 0 -31 5 -33 23 -3 19 1 22
33 22 32 0 36 -3 33 -22z m0 -85 c3 -20 -1 -23 -27 -23 -27 0 -31 4 -31 26 0
22 4 25 28 22 19 -2 28 -9 30 -25z m2 -73 c0 -16 -7 -20 -30 -20 -23 0 -30 4
-30 20 0 16 7 20 30 20 23 0 30 -4 30 -20z m0 -60 c0 -16 -7 -20 -30 -20 -23
0 -30 4 -30 20 0 16 7 20 30 20 23 0 30 -4 30 -20z m0 -150 c0 -16 -7 -20 -30
-20 -23 0 -30 4 -30 20 0 16 7 20 30 20 23 0 30 -4 30 -20z m-2 -62 c3 -14 -3
-18 -27 -18 -31 0 -47 13 -36 31 11 16 59 6 63 -13z m2 -69 c0 -27 -56 -27
-63 0 -6 26 -3 28 33 23 21 -3 30 -10 30 -23z m-2 -66 c3 -20 -1 -23 -27 -23
-33 0 -46 13 -37 36 9 25 60 14 64 -13z m2 -73 c0 -15 -7 -20 -29 -20 -20 0
-30 6 -34 20 -4 17 0 20 29 20 27 0 34 -4 34 -20z m-1842 -29 c-3 -10 -12 -15
-26 -14 -12 2 -22 -2 -22 -7 0 -17 -57 -11 -64 6 -10 26 2 33 60 33 46 -1 54
-4 52 -18z m1842 -42 c0 -17 -5 -20 -32 -17 -22 2 -34 9 -36 21 -3 14 4 17 32
17 30 0 36 -4 36 -21z m-2 -71 c3 -15 -4 -18 -32 -18 -34 0 -47 15 -29 34 13
13 58 1 61 -16z m-3 -73 c0 -14 -8 -21 -27 -23 -24 -3 -28 0 -28 23 0 23 4 26
28 23 19 -2 27 -9 27 -23z m5 -63 c0 -26 -6 -30 -35 -24 -38 7 -34 42 5 42 22
0 30 -5 30 -18z m0 -77 c0 -21 -5 -25 -30 -25 -25 0 -30 4 -30 25 0 21 5 25
30 25 25 0 30 -4 30 -25z m-2 -157 c-2 -28 -8 -34 -30 -36 -26 -3 -28 -1 -28
32 0 33 2 36 31 36 28 0 30 -2 27 -32z m2 -93 c0 -32 -2 -35 -30 -35 -28 0
-30 3 -30 35 0 32 2 35 30 35 28 0 30 -3 30 -35z m-2 -97 c-2 -28 -8 -34 -30
-36 -26 -3 -28 -1 -28 32 0 33 2 36 31 36 28 0 30 -2 27 -32z m-1883 -69 c4
-5 4 -21 1 -35 -5 -20 -13 -24 -41 -24 -32 0 -35 3 -35 28 0 16 3 32 7 35 10
11 61 8 68 -4z m1883 -27 c3 -32 2 -33 -29 -30 -29 3 -33 6 -32 31 1 15 1 30
2 33 1 3 13 4 29 2 23 -2 28 -8 30 -36z m-1603 -144 c2 -13 3 -74 2 -135 l-2
-113 -27 0 c-28 0 -28 0 -28 70 0 66 1 70 23 71 16 1 18 2 5 6 -14 4 -18 15
-18 57 0 29 3 56 7 59 14 14 33 6 38 -15z m83 -116 l3 -132 -26 0 -27 0 6 125
c5 129 9 149 29 142 8 -2 13 -47 15 -135z m80 126 c5 -7 10 -68 11 -135 l1
-123 -29 0 -28 0 4 126 c2 70 6 131 9 135 7 13 20 11 32 -3z m176 -31 c1 -34
-1 -38 -23 -35 -19 2 -25 9 -26 33 -2 39 3 47 27 43 17 -2 21 -11 22 -41z m76
3 c0 -36 -2 -40 -25 -40 -22 0 -25 4 -25 40 0 36 3 40 25 40 23 0 25 -4 25
-40z m68 -23 c3 -52 1 -57 -18 -57 -18 0 -20 6 -20 53 0 30 3 57 7 61 17 16
28 -5 31 -57z m81 49 c7 -8 11 -34 9 -58 -2 -35 -7 -43 -23 -43 -16 0 -21 8
-23 44 -5 66 10 89 37 57z m96 2 c3 -7 6 -68 8 -136 l2 -122 -27 0 c-28 0 -28
0 -28 70 0 66 1 70 23 71 14 1 16 3 6 6 -33 8 -30 123 3 123 5 0 11 -6 13 -12z
m90 0 c3 -7 6 -68 8 -135 l2 -123 -29 0 -29 0 8 127 c4 70 9 131 11 135 8 12
24 9 29 -4z m93 -51 c3 -51 1 -57 -16 -57 -24 0 -32 18 -32 69 0 42 7 53 30
49 11 -2 16 -18 18 -61z m86 48 c3 -9 3 -36 -1 -60 -4 -35 -10 -45 -24 -45
-16 0 -19 8 -19 53 0 30 3 57 7 60 11 12 31 8 37 -8z m84 -47 c2 -47 0 -57
-15 -61 -14 -4 -13 -5 5 -6 21 -1 22 -5 22 -71 l0 -70 -31 0 -32 0 8 127 c4
70 9 131 12 136 13 22 28 -5 31 -55z m247 17 c0 -33 -4 -41 -21 -43 -19 -3
-22 3 -26 38 -4 47 -2 52 27 48 16 -2 20 -10 20 -43z m75 5 c0 -36 -2 -40 -25
-40 -22 0 -25 4 -25 33 0 38 6 47 32 47 14 0 18 -8 18 -40z m-1508 -160 c-4
-70 -4 -70 -33 -70 l-29 0 0 70 0 70 33 0 32 0 -3 -70z m88 0 l0 -70 -30 0
-30 0 0 70 0 70 30 0 30 0 0 -70z m930 0 c0 -68 -1 -70 -25 -70 -24 0 -25 2
-25 70 0 68 1 70 25 70 24 0 25 -2 25 -70z m90 0 l0 -70 -30 0 -30 0 0 70 0
70 30 0 30 0 0 -70z"/>
<path d="M2191 2264 c-12 -15 -21 -34 -21 -44 0 -34 39 -70 75 -70 40 0 65 29
65 76 0 63 -79 89 -119 38z m92 -15 c14 -23 1 -67 -23 -74 -45 -14 -74 30 -49
76 12 24 57 23 72 -2z"/>
<path d="M608 1923 c-20 -3 -28 -10 -28 -24 0 -10 -7 -19 -15 -19 -8 0 -15 -4
-15 -8 0 -5 20 -4 45 2 37 9 45 15 45 33 0 13 -1 22 -2 22 -2 -1 -15 -4 -30
-6z"/>
<path d="M1202 1744 c-47 -33 -52 -58 -52 -286 0 -183 3 -218 18 -248 28 -57
41 -60 310 -60 258 0 288 5 312 49 6 12 10 115 10 261 l0 242 -29 29 -29 29
-259 0 c-218 0 -262 -2 -281 -16z m554 -39 c23 -29 24 -34 24 -243 0 -222 -6
-261 -45 -276 -9 -3 -125 -6 -258 -6 -223 0 -244 2 -267 20 l-25 19 0 234 c0
216 1 235 19 252 25 26 72 30 320 30 l209 -1 23 -29z"/>
<path d="M1361 1670 c-42 -5 -58 -12 -77 -33 -23 -27 -24 -35 -24 -179 0 -221
6 -226 235 -218 l140 6 -153 2 -154 2 -29 29 -29 29 0 145 c0 142 1 146 26
176 l26 31 157 0 c156 0 158 0 182 -26 23 -24 24 -33 27 -173 l3 -148 -27 -33
c-26 -30 -26 -32 -6 -21 13 7 27 23 32 37 13 33 13 285 0 318 -18 47 -51 59
-168 60 -59 1 -131 -1 -161 -4z"/>
<path d="M709 743 c-38 -44 -27 -95 24 -112 65 -23 120 43 80 97 -25 34 -81
42 -104 15z m80 -17 c17 -20 10 -67 -11 -79 -28 -18 -68 7 -68 42 0 44 53 69
79 37z"/>
<path d="M1040 2665 c0 -68 2 -75 20 -75 18 0 20 7 20 75 0 68 -2 75 -20 75
-18 0 -20 -7 -20 -75z"/>
<path d="M1220 2677 c0 -69 12 -91 29 -58 18 33 13 86 -9 106 -20 18 -20 17
-20 -48z"/>
<path d="M2070 2667 c0 -43 2 -77 4 -77 3 0 12 7 20 16 24 23 21 96 -4 119
-20 18 -20 17 -20 -58z"/>
<path d="M2442 2675 c2 -54 6 -70 18 -70 9 0 18 16 23 44 8 40 6 46 -18 70
l-26 26 3 -70z"/>
<path d="M2750 2142 c0 -19 -6 -22 -47 -23 -59 -1 -105 -14 -83 -22 16 -6 139
-27 158 -27 20 0 13 56 -8 75 -19 18 -20 17 -20 -3z"/>
<path d="M240 2117 c0 -4 10 -15 22 -27 27 -25 59 -26 89 0 l24 19 -36 1 c-20
0 -51 3 -68 6 -17 4 -31 4 -31 1z"/>
<path d="M2750 1990 c0 -18 -7 -20 -72 -20 -62 0 -70 -2 -58 -14 9 -8 48 -17
91 -21 71 -6 77 -5 82 14 5 20 -17 61 -34 61 -5 0 -9 -9 -9 -20z"/>
<path d="M255 1950 c20 -22 65 -26 96 -10 36 20 19 30 -48 30 -65 0 -66 0 -48
-20z"/>
<path d="M2750 1860 c0 -18 -7 -20 -70 -20 -38 0 -70 -4 -70 -9 0 -13 22 -18
108 -26 l72 -7 0 29 c0 28 -15 53 -32 53 -4 0 -8 -9 -8 -20z"/>
<path d="M255 1820 c20 -22 65 -26 96 -10 36 20 19 30 -48 30 -65 0 -66 0 -48
-20z"/>
<path d="M2750 1710 c0 -18 -6 -20 -57 -20 -56 0 -95 -12 -77 -23 11 -6 109
-20 144 -21 21 0 26 5 28 31 2 24 -2 34 -17 43 -18 9 -21 8 -21 -10z"/>
<path d="M239 1687 c16 -20 82 -40 104 -31 9 3 18 12 21 20 4 10 -3 14 -27 14
-18 0 -50 3 -72 7 -36 6 -39 5 -26 -10z"/>
<path d="M240 1582 c0 -17 35 -40 71 -46 31 -5 37 -3 47 18 10 22 8 24 -26 30
-52 8 -92 7 -92 -2z"/>
<path d="M2750 1517 c0 -20 -4 -23 -35 -19 -41 5 -110 -6 -100 -16 8 -9 157
-31 168 -25 16 9 7 62 -13 73 -17 9 -20 8 -20 -13z"/>
<path d="M240 1471 c0 -30 85 -49 112 -25 30 28 21 34 -47 34 -36 0 -65 -4
-65 -9z"/>
<path d="M2750 1367 c0 -27 -1 -27 -70 -27 -41 0 -70 -4 -70 -10 0 -15 14 -18
103 -23 l77 -5 0 27 c0 15 -9 36 -20 46 -20 18 -20 17 -20 -8z"/>
<path d="M240 1360 c0 -20 47 -41 76 -34 35 8 56 23 48 35 -7 12 -124 11 -124
-1z"/>
<path d="M247 1232 c14 -34 80 -42 107 -13 17 19 16 19 -47 23 -49 2 -63 0
-60 -10z"/>
<path d="M2750 1205 c0 -24 -2 -25 -70 -25 -38 0 -70 -4 -70 -9 0 -19 29 -27
100 -25 67 2 75 5 78 23 4 23 -14 61 -28 61 -6 0 -10 -11 -10 -25z"/>
<path d="M2750 1090 c0 -18 -6 -20 -64 -20 -36 0 -67 -4 -70 -8 -11 -18 12
-27 68 -29 33 -1 70 -4 83 -8 21 -5 23 -2 23 29 0 25 -6 38 -20 46 -17 9 -20
8 -20 -10z"/>
<path d="M250 1050 c10 -19 18 -22 65 -24 20 -1 55 22 55 36 0 5 -29 8 -65 8
-63 0 -65 -1 -55 -20z"/>
<path d="M2750 962 c0 -20 -5 -22 -54 -22 -71 0 -88 -7 -75 -28 9 -14 26 -17
87 -15 73 1 77 2 80 25 2 14 -5 31 -18 43 -20 18 -20 18 -20 -3z"/>
<path d="M240 931 c0 -31 84 -51 115 -28 11 9 18 17 15 20 -10 9 -130 16 -130
8z"/>
<path d="M2750 840 c0 -18 -7 -20 -70 -20 -41 0 -70 -4 -70 -10 0 -14 13 -17
103 -24 73 -5 77 -5 77 15 0 25 -17 59 -30 59 -6 0 -10 -9 -10 -20z"/>
<path d="M255 800 c20 -23 52 -26 90 -8 42 19 29 28 -42 28 -65 0 -66 0 -48
-20z"/>
<path d="M2750 715 c0 -24 -2 -25 -72 -25 -53 0 -69 -3 -61 -11 12 -12 143
-37 162 -31 20 7 13 70 -9 82 -18 9 -20 8 -20 -15z"/>
<path d="M254 676 c18 -28 77 -33 101 -9 20 20 19 20 -58 26 -56 4 -57 3 -43
-17z"/>
</g>
</svg>
