<?xml version="1.0" encoding="UTF-8"?>
<svg version="1.1" xmlns="http://www.w3.org/2000/svg" width="254" height="336">
<path d="M0 0 C83.82 0 167.64 0 254 0 C254 110.88 254 221.76 254 336 C170.18 336 86.36 336 0 336 C0 225.12 0 114.24 0 0 Z " fill="#F6F7F7" transform="translate(0,0)"/>
<path d="M0 0 C9.57 0 19.14 0 29 0 C29 0.66 29 1.32 29 2 C28.0409375 2.433125 28.0409375 2.433125 27.0625 2.875 C24.84793921 3.82823451 24.84793921 3.82823451 24 6 C23.89420601 8.28412576 23.8538918 10.57136513 23.84228516 12.85791016 C23.83720444 13.56401932 23.83212372 14.27012848 23.82688904 14.99763489 C23.81617196 16.53578061 23.80755704 18.07394206 23.80076981 19.61211014 C23.78895424 22.06150566 23.76948585 24.51072695 23.74765015 26.96005249 C23.6861865 33.92643237 23.63237438 40.89280156 23.59863281 47.859375 C23.57743494 52.12180828 23.54191939 56.38393503 23.49787521 60.64619064 C23.48389037 62.25734161 23.47503328 63.86854694 23.47182083 65.4797554 C23.44796878 76.31522001 22.35722114 86.41820874 20 97 C19.34 97 18.68 97 18 97 C17.855625 97.598125 17.71125 98.19625 17.5625 98.8125 C15.97253523 104.99569634 12.48534116 108.13771629 7.3125 111.6875 C0.07973912 115.94679252 -7.54760663 116.18146573 -15.75 116.3125 C-16.83172485 116.33920776 -16.83172485 116.33920776 -17.93530273 116.36645508 C-22.74213073 116.35923011 -25.85792575 115.36863484 -30 113 C-32.73572585 112.30092586 -32.73572585 112.30092586 -35 112 C-35.33 111.01 -35.66 110.02 -36 109 C-37.6018675 107.88199498 -37.6018675 107.88199498 -39.5 107 C-41.40625 106.0625 -41.40625 106.0625 -43 105 C-44.14888581 101.55334258 -44.2039347 98.75648095 -44.25 95.125 C-44.28867188 93.30355469 -44.28867188 93.30355469 -44.328125 91.4453125 C-43.8837614 86.77949467 -42.26463367 84.26463367 -39 81 C-38.01 81 -37.02 81 -36 81 C-36 80.34 -36 79.68 -36 79 C-34.08364783 78.94576362 -32.16685075 78.90710037 -30.25 78.875 C-29.18265625 78.85179687 -28.1153125 78.82859375 -27.015625 78.8046875 C-22.54451694 79.09426704 -20.72552286 80.19386348 -17.75 83.5 C-16 86 -16 86 -16 88 C-18.96175123 87.38722388 -20.38058783 86.74627478 -23 85 C-26.4103976 84.78685015 -28.74531799 84.915106 -32 86 C-33.97907401 90.6778113 -33.39983019 95.82155311 -31.8125 100.5 C-28.44084272 107.39588608 -28.44084272 107.39588608 -22.73046875 112.16015625 C-19.66991402 113.10152859 -16.88019857 113.4144924 -13.6875 113.625 C-12.61886719 113.69976562 -11.55023438 113.77453125 -10.44921875 113.8515625 C-9.23685547 113.92503906 -9.23685547 113.92503906 -8 114 C-8 113.34 -8 112.68 -8 112 C-5.36107824 110.21694476 -3.02821137 109.00940379 0 108 C0 107.34 0 106.68 0 106 C0.66 105.67 1.32 105.34 2 105 C2.61365708 102.94623994 2.61365708 102.94623994 3 100.5625 C3.78082192 96.21917808 3.78082192 96.21917808 6 94 C6.21777044 91.13996411 6.31143619 88.37392207 6.31884766 85.51123047 C6.33391609 84.19406036 6.33391609 84.19406036 6.34928894 82.85028076 C6.38025256 79.93925652 6.39719255 77.02832478 6.4140625 74.1171875 C6.43276356 72.10221554 6.45233616 70.0872515 6.4727478 68.07229614 C6.52418725 62.76227475 6.56374962 57.45222793 6.60089111 52.14208984 C6.64085688 46.72617239 6.691983 41.31036176 6.7421875 35.89453125 C6.83908658 25.26309575 6.92344645 14.63160009 7 4 C6.030625 3.71125 5.06125 3.4225 4.0625 3.125 C1 2 1 2 0 0 Z " fill="#030303" transform="translate(124,147)"/>
<path d="M0 0 C1.98 0 3.96 0 6 0 C6 106.92 6 213.84 6 324 C4.02 324 2.04 324 0 324 C0 217.08 0 110.16 0 0 Z " fill="#FEFEFE" transform="translate(248,5)"/>
<path d="M0 0 C1.32 0 2.64 0 4 0 C4 106.92 4 213.84 4 324 C2.68 324 1.36 324 0 324 C0 217.08 0 110.16 0 0 Z " fill="#FFFFFF" transform="translate(0,5)"/>
<path d="M0 0 C79.2 0 158.4 0 240 0 C240 1.65 240 3.3 240 5 C160.8 5 81.6 5 0 5 C0 3.35 0 1.7 0 0 Z " fill="#FFFFFF" transform="translate(6,331)"/>
<path d="M0 0 C79.2 0 158.4 0 240 0 C240 0.99 240 1.98 240 3 C160.8 3 81.6 3 0 3 C0 2.01 0 1.02 0 0 Z " fill="#FFFFFF" transform="translate(6,0)"/>
<path d="M0 0 C14.52 0 29.04 0 44 0 C44 1.65 44 3.3 44 5 C42.9275 5.144375 41.855 5.28875 40.75 5.4375 C38.07400181 5.83889973 35.60118809 6.31517393 33 7 C33.00888245 7.93579391 33.01776489 8.87158783 33.0269165 9.83573914 C33.10841771 18.70545534 33.16816308 27.57509441 33.20724869 36.44510174 C33.22801938 41.00400734 33.25614174 45.56260782 33.30175781 50.12133789 C33.34559474 54.53044903 33.36921594 58.93926887 33.37950897 63.34858131 C33.3868331 65.02090851 33.40113299 66.69322189 33.42292023 68.3654232 C33.55219132 78.70962761 32.80737209 87.24379452 29 97 C27.99634761 93.86828804 28.07364397 91.98164178 28.91821289 88.82763672 C30.40394946 81.98509018 30.29654327 75.13980758 30.30496025 68.17526627 C30.30866314 65.71164739 30.32548973 63.24841712 30.34571838 60.78488159 C30.40079556 53.78862714 30.43192496 46.79232049 30.45629883 39.79589844 C30.47216416 35.49837882 30.50235307 31.20114558 30.54106331 26.90377426 C30.55270225 25.2715343 30.55864356 23.63924327 30.55874443 22.00696182 C30.55893632 19.73106042 30.57718376 17.45595377 30.59936523 15.18017578 C30.60697121 13.24019211 30.60697121 13.24019211 30.61473083 11.26101685 C31.02051063 7.82639275 31.4847509 6.34697483 34 4 C34.99 4 35.98 4 37 4 C37 3.34 37 2.68 37 2 C27.76 2.33 18.52 2.66 9 3 C10.98 3.99 12.96 4.98 15 6 C15.04626739 17.69998437 15.08184065 29.3999471 15.10362434 41.1000042 C15.11407752 46.5323598 15.12826461 51.96465298 15.15087891 57.39697266 C15.1725527 62.63594301 15.18455706 67.87485319 15.18975449 73.1138649 C15.19346009 75.11622185 15.20069583 77.11857538 15.21146011 79.12090683 C15.22590247 81.91775473 15.227981 84.7143515 15.22705078 87.51123047 C15.23783661 88.76279434 15.23783661 88.76279434 15.24884033 90.03964233 C15.22810432 95.77189568 15.22810432 95.77189568 13 98 C12.38712303 100.31956908 11.9855801 102.64296818 11.5625 105.00390625 C11.376875 105.66261719 11.19125 106.32132812 11 107 C10.01 107.495 10.01 107.495 9 108 C9.21275574 106.93125137 9.42551147 105.86250275 9.64471436 104.7613678 C11.84177625 93.12480185 12.41617186 81.93996425 12.328125 70.12109375 C12.32505716 68.28833676 12.32318885 66.45557741 12.32244873 64.62281799 C12.31789747 60.82698309 12.30365808 57.03136653 12.28125 53.2355957 C12.25262575 48.3620601 12.24199862 43.48869258 12.2375679 38.61508083 C12.23342758 34.85173359 12.22362738 31.08842037 12.21169281 27.32509041 C12.20599121 25.52566867 12.20123214 23.72624369 12.19742584 21.92681694 C12.19059515 19.43349189 12.17698737 16.94030337 12.16113281 14.44702148 C12.16001495 13.70278427 12.15889709 12.95854706 12.15774536 12.1917572 C12.42729032 8.80897822 12.42729032 8.80897822 11 6 C9.31816052 5.76712992 7.6287584 5.58735834 5.9375 5.4375 C5.01839844 5.35371094 4.09929687 5.26992187 3.15234375 5.18359375 C2.08693359 5.09271484 2.08693359 5.09271484 1 5 C0.67 3.35 0.34 1.7 0 0 Z " fill="#8B8B8B" transform="translate(116,145)"/>
<path d="M0 0 C1.91635217 -0.05423638 3.83314925 -0.09289963 5.75 -0.125 C7.35101563 -0.15980469 7.35101563 -0.15980469 8.984375 -0.1953125 C13.45548306 0.09426704 15.27447714 1.19386348 18.25 4.5 C20 7 20 7 20 9 C17.03824877 8.38722388 15.61941217 7.74627478 13 6 C9.5896024 5.78685015 7.25468201 5.915106 4 7 C2.02092599 11.6778113 2.60016981 16.82155311 4.1875 21.5 C7.55915728 28.39588608 7.55915728 28.39588608 13.26953125 33.16015625 C16.33008598 34.10152859 19.11980143 34.4144924 22.3125 34.625 C23.38113281 34.69976562 24.44976562 34.77453125 25.55078125 34.8515625 C26.35902344 34.90054688 27.16726562 34.94953125 28 35 C28 34.34 28 33.68 28 33 C30.63892176 31.21694476 32.97178863 30.00940379 36 29 C36 28.34 36 27.68 36 27 C36.99 26.67 37.98 26.34 39 26 C37.92598892 28.91517292 37.22189824 30.77810176 35 33 C37.64 32.67 40.28 32.34 43 32 C36.45357656 37.36953833 28.39348222 37.19767962 20.25 37.3125 C19.16875854 37.33896606 19.16875854 37.33896606 18.06567383 37.3659668 C13.25840504 37.35985563 10.1423452 36.36878977 6 34 C3.26427415 33.30092586 3.26427415 33.30092586 1 33 C0.505 31.515 0.505 31.515 0 30 C-1.6018675 28.88199498 -1.6018675 28.88199498 -3.5 28 C-5.40625 27.0625 -5.40625 27.0625 -7 26 C-8.14888581 22.55334258 -8.2039347 19.75648095 -8.25 16.125 C-8.28867188 14.30355469 -8.28867188 14.30355469 -8.328125 12.4453125 C-7.8837614 7.77949467 -6.26463367 5.26463367 -3 2 C-2.01 2 -1.02 2 0 2 C0 1.34 0 0.68 0 0 Z " fill="#060606" transform="translate(88,226)"/>
<path d="M0 0 C1.33998047 0.06960937 1.33998047 0.06960937 2.70703125 0.140625 C3.60808594 0.17671875 4.50914062 0.2128125 5.4375 0.25 C6.46810547 0.31960937 6.46810547 0.31960937 7.51953125 0.390625 C7.51953125 0.720625 7.51953125 1.050625 7.51953125 1.390625 C6.44703125 1.535 5.37453125 1.679375 4.26953125 1.828125 C1.59353306 2.22952473 -0.87928066 2.70579893 -3.48046875 3.390625 C-3.4715863 4.32641891 -3.46270386 5.26221283 -3.45355225 6.22636414 C-3.37205104 15.09608034 -3.31230567 23.96571941 -3.27322006 32.83572674 C-3.25244937 37.39463234 -3.22432701 41.95323282 -3.17871094 46.51196289 C-3.13487401 50.92107403 -3.11125281 55.32989387 -3.10095978 59.73920631 C-3.09363565 61.41153351 -3.07933576 63.08384689 -3.05754852 64.7560482 C-2.92827743 75.10025261 -3.67309666 83.63441952 -7.48046875 93.390625 C-8.48412114 90.25891304 -8.40682478 88.37226678 -7.56225586 85.21826172 C-6.07651929 78.37571518 -6.18392548 71.53043258 -6.1755085 64.56589127 C-6.17180561 62.10227239 -6.15497902 59.63904212 -6.13475037 57.17550659 C-6.07967319 50.17925214 -6.04854379 43.18294549 -6.02416992 36.18652344 C-6.00830459 31.88900382 -5.97811568 27.59177058 -5.93940544 23.29439926 C-5.9277665 21.6621593 -5.92182519 20.02986827 -5.92172432 18.39758682 C-5.92153243 16.12168542 -5.90328499 13.84657877 -5.88110352 11.57080078 C-5.87603287 10.27747833 -5.87096222 8.98415588 -5.86573792 7.65164185 C-5.36583616 3.42034541 -4.44725426 0.700355 0 0 Z " fill="#BDBDBD" transform="translate(152.48046875,148.609375)"/>
<path d="M0 0 C1.32 0 2.64 0 4 0 C4.0580966 3.9166043 4.09362893 7.83309763 4.125 11.75 C4.14175781 12.86117187 4.15851562 13.97234375 4.17578125 15.1171875 C4.18222656 16.18710937 4.18867187 17.25703125 4.1953125 18.359375 C4.20578613 19.34389648 4.21625977 20.32841797 4.22705078 21.34277344 C3.99200062 24.0936186 3.4979873 25.69813448 2 28 C-1.20061023 29.60030511 -4.5267248 29.49422098 -8 29 C-10.5 27.3125 -10.5 27.3125 -12 25 C-12.25 22.25 -12.25 22.25 -12 20 C-10.68 20 -9.36 20 -8 20 C-7.67 21.65 -7.34 23.3 -7 25 C-5.02 25 -3.04 25 -1 25 C-0.67 16.75 -0.34 8.5 0 0 Z " fill="#C9C9C9" transform="translate(29,20)"/>
<path d="M0 0 C0.99 0 1.98 0 3 0 C2.89234646 9.9359956 2.77968253 19.87192064 2.66066074 29.80778694 C2.60554801 34.42163906 2.55214701 39.03549763 2.50268555 43.64941406 C2.4548697 48.10390434 2.40252136 52.55832061 2.34705925 57.01272202 C2.32671351 58.71030707 2.30798794 60.40791236 2.29092598 62.1055336 C2.26670889 64.48725932 2.23667916 66.86884731 2.20532227 69.25048828 C2.1995668 69.94892349 2.19381134 70.6473587 2.18788147 71.36695862 C2.12864527 75.33752117 1.75491307 79.10174778 1 83 C0.67 83 0.34 83 0 83 C0 55.61 0 28.22 0 0 Z " fill="#414141" transform="translate(145,151)"/>
<path d="M0 0 C1.91635217 -0.05423638 3.83314925 -0.09289963 5.75 -0.125 C7.35101563 -0.15980469 7.35101563 -0.15980469 8.984375 -0.1953125 C13.45548306 0.09426704 15.27447714 1.19386348 18.25 4.5 C20 7 20 7 20 9 C17.03824877 8.38722388 15.61941217 7.74627478 13 6 C8.85223727 5.71337567 8.85223727 5.71337567 5 7 C5.33 6.01 5.66 5.02 6 4 C6.66 4 7.32 4 8 4 C8 3.34 8 2.68 8 2 C6.3934324 2.25620684 4.7897517 2.53055871 3.1875 2.8125 C2.29417969 2.96332031 1.40085937 3.11414063 0.48046875 3.26953125 C-2.23646816 4.06963708 -3.29220958 4.77502384 -5 7 C-6.2062252 10.61867559 -6.10816918 13.92506251 -6.0625 17.6875 C-6.05573242 18.7403418 -6.05573242 18.7403418 -6.04882812 19.81445312 C-6.03706927 21.54300538 -6.01913454 23.27151365 -6 25 C-5.34 25 -4.68 25 -4 25 C-4 25.66 -4 26.32 -4 27 C-4.99 26.67 -5.98 26.34 -7 26 C-8.14888581 22.55334258 -8.2039347 19.75648095 -8.25 16.125 C-8.28867188 14.30355469 -8.28867188 14.30355469 -8.328125 12.4453125 C-7.8837614 7.77949467 -6.26463367 5.26463367 -3 2 C-2.01 2 -1.02 2 0 2 C0 1.34 0 0.68 0 0 Z " fill="#7B7B7B" transform="translate(88,226)"/>
<path d="M0 0 C1.32 0 2.64 0 4 0 C4 0.66 4 1.32 4 2 C4.66 2 5.32 2 6 2 C6 5.3 6 8.6 6 12 C5.34 12 4.68 12 4 12 C4 12.66 4 13.32 4 14 C2.68 14 1.36 14 0 14 C0 13.34 0 12.68 0 12 C-0.66 12 -1.32 12 -2 12 C-2 8.7 -2 5.4 -2 2 C-1.34 2 -0.68 2 0 2 C0 1.34 0 0.68 0 0 Z " fill="#CDCECE" transform="translate(50,65)"/>
<path d="M0 0 C1.32 0 2.64 0 4 0 C4 0.66 4 1.32 4 2 C4.66 2 5.32 2 6 2 C6 5.3 6 8.6 6 12 C5.34 12 4.68 12 4 12 C4 12.66 4 13.32 4 14 C2.68 14 1.36 14 0 14 C0 13.34 0 12.68 0 12 C-0.66 12 -1.32 12 -2 12 C-2 8.7 -2 5.4 -2 2 C-1.34 2 -0.68 2 0 2 C0 1.34 0 0.68 0 0 Z " fill="#CDCECE" transform="translate(40,65)"/>
<path d="M0 0 C0 3.51716303 -0.82445585 4.37121748 -3 7 C-0.36 6.67 2.28 6.34 5 6 C-1.61251278 11.42374644 -9.72210617 11.1848605 -17.9375 11.25 C-18.68346436 11.25926514 -19.42942871 11.26853027 -20.19799805 11.27807617 C-23.99619272 11.25599616 -25.76650069 11.1556662 -29 9 C-27.02 8.34 -25.04 7.68 -23 7 C-22.67 7.33 -22.34 7.66 -22 8 C-19.98405418 8.23427778 -17.961526 8.41336124 -15.9375 8.5625 C-14.83277344 8.64628906 -13.72804688 8.73007812 -12.58984375 8.81640625 C-11.30787109 8.90728516 -11.30787109 8.90728516 -10 9 C-10 8.34 -10 7.68 -10 7 C-7.36107824 5.21694476 -5.02821137 4.00940379 -2 3 C-2 2.34 -2 1.68 -2 1 C-1.34 0.67 -0.68 0.34 0 0 Z " fill="#6A6A6A" transform="translate(126,252)"/>
<path d="M0 0 C2.5 1.3125 2.5 1.3125 5 3 C5 3.99 5 4.98 5 6 C6.60875 6.185625 6.60875 6.185625 8.25 6.375 C12 7 12 7 13.734375 8.0234375 C17.08960025 9.46965528 20.41015492 9.29440228 24 9.25 C24.74950928 9.24613281 25.49901855 9.24226563 26.27124023 9.23828125 C32.63899141 9.14040995 38.77132331 8.34414603 45 7 C45 7.66 45 8.32 45 9 C38.96470837 11.80479152 33.04003701 11.32972876 26.5 11.3125 C25.27667969 11.32861328 24.05335937 11.34472656 22.79296875 11.36132812 C21.02373047 11.36229492 21.02373047 11.36229492 19.21875 11.36328125 C18.14560547 11.36626221 17.07246094 11.36924316 15.96679688 11.37231445 C12.61862278 10.95213954 10.77602605 9.85965912 8 8 C7.319375 7.87625 6.63875 7.7525 5.9375 7.625 C2.91776515 6.65089198 1.74252553 4.55155524 0 2 C0 1.34 0 0.68 0 0 Z " fill="#C6C7C7" transform="translate(84,253)"/>
<path d="M0 0 C0.99 0 1.98 0 3 0 C3 3.63 3 7.26 3 11 C3.99 11 4.98 11 6 11 C6 7.37 6 3.74 6 0 C6.66 0 7.32 0 8 0 C8 3.96 8 7.92 8 12 C7.34 12 6.68 12 6 12 C6 12.66 6 13.32 6 14 C4.68 14 3.36 14 2 14 C2 13.34 2 12.68 2 12 C1.34 12 0.68 12 0 12 C0 8.04 0 4.08 0 0 Z " fill="#C8C8C8" transform="translate(18,65)"/>
<path d="M0 0 C13.2 0 26.4 0 40 0 C40 0.99 40 1.98 40 3 C38.02 3 36.04 3 34 3 C34 2.34 34 1.68 34 1 C24.76 1.33 15.52 1.66 6 2 C6 2.33 6 2.66 6 3 C4.35 3 2.7 3 1 3 C0.67 2.01 0.34 1.02 0 0 Z " fill="#5F5F5F" transform="translate(119,146)"/>
<path d="M0 0 C0.66 0 1.32 0 2 0 C2 1.32 2 2.64 2 4 C3.32 4 4.64 4 6 4 C6 2.68 6 1.36 6 0 C6.66 0 7.32 0 8 0 C8 3.96 8 7.92 8 12 C7.34 12 6.68 12 6 12 C6 10.02 6 8.04 6 6 C4.68 6 3.36 6 2 6 C2 7.98 2 9.96 2 12 C1.34 12 0.68 12 0 12 C0 8.04 0 4.08 0 0 Z " fill="#C8C8C8" transform="translate(70,67)"/>
<path d="M0 0 C-0.598125 0.268125 -1.19625 0.53625 -1.8125 0.8125 C-4.16256058 2.08824717 -5.39434469 2.85912626 -7 5 C-7.58218332 8.4223884 -7.58218332 8.4223884 -7.6875 12.1875 C-7.75324219 13.45980469 -7.81898437 14.73210937 -7.88671875 16.04296875 C-7.94279297 17.50669922 -7.94279297 17.50669922 -8 19 C-11.01196522 15.98803478 -10.96147992 13.71904144 -11.1875 9.5 C-11.01279229 6.23878936 -10.84672993 4.62430043 -9 2 C-5.5647952 -0.29013653 -4.014669 -0.17842973 0 0 Z " fill="#BBBCBC" transform="translate(101,231)"/>
<path d="M0 0 C0.66 0 1.32 0 2 0 C2 2.64 2 5.28 2 8 C2.66 8 3.32 8 4 8 C4 8.66 4 9.32 4 10 C3.34 10 2.68 10 2 10 C2 11.32 2 12.64 2 14 C1.34 14 0.68 14 0 14 C0 12.68 0 11.36 0 10 C-1.98 10 -3.96 10 -6 10 C-6 8.68 -6 7.36 -6 6 C-5.34 6 -4.68 6 -4 6 C-4 6.66 -4 7.32 -4 8 C-2.68 8 -1.36 8 0 8 C0 6.68 0 5.36 0 4 C-0.66 4 -1.32 4 -2 4 C-2 3.34 -2 2.68 -2 2 C-1.34 2 -0.68 2 0 2 C0 1.34 0 0.68 0 0 Z " fill="#C8C8C8" transform="translate(64,65)"/>
<path d="M0 0 C6.93 0.33 13.86 0.66 21 1 C20.01 1.33 19.02 1.66 18 2 C18 2.66 18 3.32 18 4 C5.33029613 4.55353075 5.33029613 4.55353075 0 1 C0 0.67 0 0.34 0 0 Z " fill="#BABBBB" transform="translate(98,257)"/>
<path d="M0 0 C0 3.51716303 -0.82445585 4.37121748 -3 7 C-0.36 6.67 2.28 6.34 5 6 C3.0373772 8.04795423 1.5722693 8.94976638 -1.26953125 9.19921875 C-3.51954383 9.18858877 -5.75385562 9.12958525 -8 9 C-6.48052501 5.63251488 -5.47899158 4.39159663 -2 3 C-2 2.34 -2 1.68 -2 1 C-1.34 0.67 -0.68 0.34 0 0 Z " fill="#3B3C3C" transform="translate(126,252)"/>
<path d="M0 0 C1.14926266 0.95421808 2.29430541 1.91352045 3.4375 2.875 C4.39462891 3.67550781 4.39462891 3.67550781 5.37109375 4.4921875 C7 6 7 6 8 8 C3.18061476 8.23509196 -0.46298506 7.45184478 -5 6 C-5 5.34 -5 4.68 -5 4 C-2.03 4.495 -2.03 4.495 1 5 C0.67 3.35 0.34 1.7 0 0 Z " fill="#3C3C3C" transform="translate(94,253)"/>
<path d="M0 0 C0.33 0 0.66 0 1 0 C1.67620721 8.32110535 -0.25506495 15.18183678 -3 23 C-4.11563018 19.62953982 -3.86843709 17.25980759 -3.125 13.8125 C-2.94195312 12.93207031 -2.75890625 12.05164063 -2.5703125 11.14453125 C-2 9 -2 9 -1 8 C-0.76924918 6.65252916 -0.58846937 5.29622435 -0.4375 3.9375 C-0.2209375 1.9884375 -0.2209375 1.9884375 0 0 Z " fill="#BCBDBD" transform="translate(148,219)"/>
<path d="M0 0 C1.98 0 3.96 0 6 0 C6 1.65 6 3.3 6 5 C4.02 5 2.04 5 0 5 C0 3.35 0 1.7 0 0 Z " fill="#FFFFFF" transform="translate(248,331)"/>
<path d="M0 0 C0.66 0 1.32 0 2 0 C1.938125 1.299375 1.87625 2.59875 1.8125 3.9375 C1.78812858 9.05549789 3.12566102 13.28068221 5 18 C2 17 2 17 0 14 C-0.1953125 10.64453125 -0.1953125 10.64453125 -0.125 6.8125 C-0.10695313 5.54019531 -0.08890625 4.26789063 -0.0703125 2.95703125 C-0.04710938 1.98121094 -0.02390625 1.00539062 0 0 Z " fill="#3A3A3A" transform="translate(89,235)"/>
<path d="M0 0 C0 2 0 2 -1.375 3.5 C-1.91125 3.995 -2.4475 4.49 -3 5 C-3.66 5.66 -4.32 6.32 -5 7 C-4.67 5.35 -4.34 3.7 -4 2 C-4.928125 2.33 -5.85625 2.66 -6.8125 3 C-10 4 -10 4 -13 4 C-9.09650503 -0.27525639 -5.61326496 -0.10591066 0 0 Z " fill="#292929" transform="translate(96,228)"/>
<path d="M0 0 C2.5 1.3125 2.5 1.3125 5 3 C5 3.99 5 4.98 5 6 C6.0725 6.103125 7.145 6.20625 8.25 6.3125 C11.85820872 6.97400493 13.36395023 7.57483421 16 10 C14.32774271 9.69595322 12.66246041 9.35371498 11 9 C9.824375 8.7525 8.64875 8.505 7.4375 8.25 C3.52639931 6.82778157 2.18052996 5.48884793 0 2 C0 1.34 0 0.68 0 0 Z " fill="#9C9C9C" transform="translate(84,253)"/>
<path d="M0 0 C0.66 0 1.32 0 2 0 C0.125 6.75 0.125 6.75 -1 9 C-2.33333333 9.66666667 -3.66666667 10.33333333 -5 11 C-5.33 11.66 -5.66 12.32 -6 13 C-6.66 12.67 -7.32 12.34 -8 12 C-6.71937515 10.2925002 -5.38232443 8.62626404 -4 7 C-3.34 7 -2.68 7 -2 7 C-1.855625 6.401875 -1.71125 5.80375 -1.5625 5.1875 C-1.1127561 3.43849596 -0.57107659 1.71322977 0 0 Z " fill="#8B8B8B" transform="translate(142,244)"/>
<path d="M0 0 C0.99 0 1.98 0 3 0 C3 2.97 3 5.94 3 9 C2.01 9 1.02 9 0 9 C0 6.03 0 3.06 0 0 Z " fill="#F4F5F5" transform="translate(51,67)"/>
<path d="M0 0 C0.99 0 1.98 0 3 0 C3 2.97 3 5.94 3 9 C2.01 9 1.02 9 0 9 C0 6.03 0 3.06 0 0 Z " fill="#F4F5F5" transform="translate(41,67)"/>
<path d="M0 0 C3.17538332 0.34021964 4.02276865 1.02466604 6.25 3.4375 C8 6 8 6 8 8 C4.73045798 7.43628586 3.17424117 6.50037734 1 4 C1.66 4 2.32 4 3 4 C3 3.34 3 2.68 3 2 C2.01 2 1.02 2 0 2 C0 1.34 0 0.68 0 0 Z " fill="#797979" transform="translate(100,227)"/>
<path d="M0 0 C1.32 0 2.64 0 4 0 C4 1.98 4 3.96 4 6 C2.68 6 1.36 6 0 6 C0 4.02 0 2.04 0 0 Z " fill="#E1E1E1" transform="translate(72,65)"/>
<path d="M0 0 C0.33 0 0.66 0 1 0 C1 3.63 1 7.26 1 11 C1.99 11 2.98 11 4 11 C4 11.99 4 12.98 4 14 C2.68 14 1.36 14 0 14 C0 9.38 0 4.76 0 0 Z " fill="#DFE0E0" transform="translate(20,65)"/>
<path d="M0 0 C1.32 0 2.64 0 4 0 C4 1.65 4 3.3 4 5 C2.68 5 1.36 5 0 5 C0 3.35 0 1.7 0 0 Z " fill="#FFFFFF" transform="translate(0,331)"/>
<path d="M0 0 C0.66 0 1.32 0 2 0 C2 0.66 2 1.32 2 2 C2.66 2 3.32 2 4 2 C4 2.66 4 3.32 4 4 C3.34 4 2.68 4 2 4 C2 4.66 2 5.32 2 6 C1.34 6 0.68 6 0 6 C0 5.34 0 4.68 0 4 C-0.66 4 -1.32 4 -2 4 C-2 3.34 -2 2.68 -2 2 C-1.34 2 -0.68 2 0 2 C0 1.34 0 0.68 0 0 Z " fill="#C8C8C8" transform="translate(32,71)"/>
<path d="M0 0 C-0.8353125 0.37125 -0.8353125 0.37125 -1.6875 0.75 C-4.39971127 2.21606015 -6.63587365 4.02989471 -9 6 C-9 4.68 -9 3.36 -9 2 C-5.5647952 -0.29013653 -4.014669 -0.17842973 0 0 Z " fill="#D4D5D5" transform="translate(101,231)"/>
<path d="M0 0 C1.98 0 3.96 0 6 0 C6 0.99 6 1.98 6 3 C4.02 3 2.04 3 0 3 C0 2.01 0 1.02 0 0 Z " fill="#6A6A6A" transform="translate(153,146)"/>
<path d="M0 0 C1.98 0 3.96 0 6 0 C6 0.99 6 1.98 6 3 C4.02 3 2.04 3 0 3 C0 2.01 0 1.02 0 0 Z " fill="#FFFFFF" transform="translate(248,0)"/>
</svg>
